<svg width="123" height="23" viewBox="0 0 123 23" fill="none" xmlns="http://www.w3.org/2000/svg">
<mask id="mask0" style="mask-type:alpha" maskUnits="userSpaceOnUse" x="0" y="0" width="24" height="23">
<path fill-rule="evenodd" clip-rule="evenodd" d="M12 17.27L18.18 21L16.54 13.97L22 9.24L14.81 8.63L12 2L9.19 8.63L2 9.24L7.46 13.97L5.82 21L12 17.27Z" fill="white"/>
<path fill-rule="evenodd" clip-rule="evenodd" d="M12 17.27L18.18 21L16.54 13.97L22 9.24L14.81 8.63L12 2L9.19 8.63L2 9.24L7.46 13.97L5.82 21L12 17.27Z" stroke="white"/>
</mask>
<g mask="url(#mask0)">
<rect x="-1" y="-1" width="26" height="26" fill="#4D4D4D"/>
<rect x="-1" y="-1" width="26" height="26" stroke="black"/>
<rect x="-1" y="-1" width="26" height="26" stroke="black" stroke-opacity="0.2"/>
</g>
<mask id="mask1" style="mask-type:alpha" maskUnits="userSpaceOnUse" x="25" y="0" width="24" height="23">
<path fill-rule="evenodd" clip-rule="evenodd" d="M37 17.27L43.18 21L41.54 13.97L47 9.24L39.81 8.63L37 2L34.19 8.63L27 9.24L32.46 13.97L30.82 21L37 17.27Z" fill="white"/>
<path fill-rule="evenodd" clip-rule="evenodd" d="M37 17.27L43.18 21L41.54 13.97L47 9.24L39.81 8.63L37 2L34.19 8.63L27 9.24L32.46 13.97L30.82 21L37 17.27Z" stroke="white"/>
</mask>
<g mask="url(#mask1)">
<rect x="24" y="-1" width="26" height="26" fill="#4D4D4D"/>
<rect x="24" y="-1" width="26" height="26" stroke="black"/>
<rect x="24" y="-1" width="26" height="26" stroke="black" stroke-opacity="0.2"/>
</g>
<mask id="mask2" style="mask-type:alpha" maskUnits="userSpaceOnUse" x="50" y="0" width="24" height="23">
<path fill-rule="evenodd" clip-rule="evenodd" d="M62 17.27L68.18 21L66.54 13.97L72 9.24L64.81 8.63L62 2L59.19 8.63L52 9.24L57.46 13.97L55.82 21L62 17.27Z" fill="white"/>
<path fill-rule="evenodd" clip-rule="evenodd" d="M62 17.27L68.18 21L66.54 13.97L72 9.24L64.81 8.63L62 2L59.19 8.63L52 9.24L57.46 13.97L55.82 21L62 17.27Z" stroke="white"/>
</mask>
<g mask="url(#mask2)">
<rect x="49" y="-1" width="26" height="26" fill="#4D4D4D"/>
<rect x="49" y="-1" width="26" height="26" stroke="black"/>
<rect x="49" y="-1" width="26" height="26" stroke="black" stroke-opacity="0.2"/>
</g>
<mask id="mask3" style="mask-type:alpha" maskUnits="userSpaceOnUse" x="75" y="0" width="23" height="23">
<path fill-rule="evenodd" clip-rule="evenodd" d="M97 9.24L89.81 8.62L87 2L84.19 8.63L77 9.24L82.46 13.97L80.82 21L87 17.27L93.18 21L91.55 13.97L97 9.24V9.24ZM87 15.4V6.1L88.71 10.14L93.09 10.52L89.77 13.4L90.77 17.68L87 15.4V15.4Z" fill="white"/>
<path d="M89.81 8.62L89.3497 8.81536L89.4673 9.0923L89.767 9.11815L89.81 8.62ZM87 2L87.4603 1.80464L86.9997 0.71952L86.5396 1.80489L87 2ZM84.19 8.63L84.2323 9.12821L84.5327 9.10272L84.6504 8.82511L84.19 8.63ZM77 9.24L76.9577 8.74179L75.7769 8.84197L76.6726 9.61791L77 9.24ZM82.46 13.97L82.9469 14.0836L83.0155 13.7897L82.7874 13.5921L82.46 13.97ZM80.82 21L80.3331 20.8864L80.0639 22.0404L81.0784 21.4281L80.82 21ZM87 17.27L87.2584 16.8419L87 16.686L86.7416 16.8419L87 17.27ZM93.18 21L92.9216 21.4281L93.9342 22.0392L93.6671 20.8871L93.18 21ZM91.55 13.97L91.2223 13.5924L90.9949 13.7897L91.0629 14.0829L91.55 13.97ZM87 6.1L87.4605 5.90511L86.5 6.1H87ZM88.71 10.14L88.2495 10.3349L88.3669 10.6121L88.6668 10.6381L88.71 10.14ZM93.09 10.52L93.4176 10.8977L94.3096 10.1239L93.1332 10.0219L93.09 10.52ZM89.77 13.4L89.4424 13.0223L89.2145 13.22L89.2831 13.5138L89.77 13.4ZM90.77 17.68L90.5113 18.1078L91.527 18.7221L91.2569 17.5662L90.77 17.68ZM97.043 8.74185L89.853 8.12185L89.767 9.11815L96.957 9.73815L97.043 8.74185ZM90.2703 8.42464L87.4603 1.80464L86.5397 2.19536L89.3497 8.81536L90.2703 8.42464ZM86.5396 1.80489L83.7296 8.43489L84.6504 8.82511L87.4604 2.19511L86.5396 1.80489ZM84.1477 8.13179L76.9577 8.74179L77.0423 9.73821L84.2323 9.12821L84.1477 8.13179ZM76.6726 9.61791L82.1326 14.3479L82.7874 13.5921L77.3274 8.86209L76.6726 9.61791ZM81.9731 13.8564L80.3331 20.8864L81.3069 21.1136L82.9469 14.0836L81.9731 13.8564ZM81.0784 21.4281L87.2584 17.6981L86.7416 16.8419L80.5616 20.5719L81.0784 21.4281ZM86.7416 17.6981L92.9216 21.4281L93.4384 20.5719L87.2584 16.8419L86.7416 17.6981ZM93.6671 20.8871L92.0371 13.8571L91.0629 14.0829L92.6929 21.1129L93.6671 20.8871ZM91.8777 14.3476L97.3277 9.61762L96.6723 8.86238L91.2223 13.5924L91.8777 14.3476ZM87.5 15.4V6.1H86.5V15.4H87.5ZM86.5395 6.29489L88.2495 10.3349L89.1705 9.94511L87.4605 5.90511L86.5395 6.29489ZM88.6668 10.6381L93.0468 11.0181L93.1332 10.0219L88.7532 9.64187L88.6668 10.6381ZM92.7624 10.1423L89.4424 13.0223L90.0976 13.7777L93.4176 10.8977L92.7624 10.1423ZM89.2831 13.5138L90.2831 17.7938L91.2569 17.5662L90.2569 13.2862L89.2831 13.5138ZM91.0287 17.2522L87.2587 14.9722L86.7413 15.8278L90.5113 18.1078L91.0287 17.2522Z" fill="white"/>
</mask>
<g mask="url(#mask3)">
<rect x="74" y="-1" width="26" height="26" fill="#4D4D4D"/>
<rect x="74" y="-1" width="26" height="26" stroke="black"/>
<rect x="74" y="-1" width="26" height="26" stroke="black" stroke-opacity="0.2"/>
</g>
<path d="M114.81 8.62L114.35 8.81536L114.467 9.0923L114.767 9.11815L114.81 8.62ZM112 2L112.46 1.80464L112 0.71952L111.54 1.80489L112 2ZM109.19 8.63L109.232 9.12821L109.533 9.10272L109.65 8.82511L109.19 8.63ZM102 9.24L101.958 8.74179L100.777 8.84197L101.673 9.61791L102 9.24ZM107.46 13.97L107.947 14.0836L108.015 13.7897L107.787 13.5921L107.46 13.97ZM105.82 21L105.333 20.8864L105.064 22.0404L106.078 21.4281L105.82 21ZM112 17.27L112.258 16.8419L112 16.686L111.742 16.8419L112 17.27ZM118.18 21L117.922 21.4281L118.934 22.0392L118.667 20.8871L118.18 21ZM116.55 13.97L116.222 13.5924L115.995 13.7897L116.063 14.0829L116.55 13.97ZM108.24 17.67L107.753 17.5562L107.483 18.7109L108.498 18.098L108.24 17.67ZM109.24 13.39L109.727 13.5038L109.796 13.21L109.568 13.0123L109.24 13.39ZM105.92 10.51L105.877 10.0119L104.7 10.1139L105.592 10.8877L105.92 10.51ZM110.3 10.13L110.343 10.6281L110.644 10.6021L110.761 10.3243L110.3 10.13ZM112 6.1L112.46 5.90511L111.999 4.81541L111.539 5.90566L112 6.1ZM113.71 10.14L113.25 10.3349L113.367 10.6121L113.667 10.6381L113.71 10.14ZM118.09 10.52L118.418 10.8977L119.31 10.1239L118.133 10.0219L118.09 10.52ZM114.77 13.4L114.442 13.0223L114.214 13.22L114.283 13.5138L114.77 13.4ZM115.77 17.68L115.511 18.1078L116.527 18.7221L116.257 17.5662L115.77 17.68ZM122.043 8.74185L114.853 8.12185L114.767 9.11815L121.957 9.73815L122.043 8.74185ZM115.27 8.42464L112.46 1.80464L111.54 2.19536L114.35 8.81536L115.27 8.42464ZM111.54 1.80489L108.73 8.43489L109.65 8.82511L112.46 2.19511L111.54 1.80489ZM109.148 8.13179L101.958 8.74179L102.042 9.73821L109.232 9.12821L109.148 8.13179ZM101.673 9.61791L107.133 14.3479L107.787 13.5921L102.327 8.86209L101.673 9.61791ZM106.973 13.8564L105.333 20.8864L106.307 21.1136L107.947 14.0836L106.973 13.8564ZM106.078 21.4281L112.258 17.6981L111.742 16.8419L105.562 20.5719L106.078 21.4281ZM111.742 17.6981L117.922 21.4281L118.438 20.5719L112.258 16.8419L111.742 17.6981ZM118.667 20.8871L117.037 13.8571L116.063 14.0829L117.693 21.1129L118.667 20.8871ZM116.878 14.3476L122.328 9.61762L121.672 8.86238L116.222 13.5924L116.878 14.3476ZM111.742 14.972L107.982 17.242L108.498 18.098L112.258 15.828L111.742 14.972ZM108.727 17.7838L109.727 13.5038L108.753 13.2762L107.753 17.5562L108.727 17.7838ZM109.568 13.0123L106.248 10.1323L105.592 10.8877L108.912 13.7677L109.568 13.0123ZM105.963 11.0081L110.343 10.6281L110.257 9.63187L105.877 10.0119L105.963 11.0081ZM110.761 10.3243L112.461 6.29433L111.539 5.90566L109.839 9.93567L110.761 10.3243ZM111.54 6.29489L113.25 10.3349L114.17 9.94511L112.46 5.90511L111.54 6.29489ZM113.667 10.6381L118.047 11.0181L118.133 10.0219L113.753 9.64187L113.667 10.6381ZM117.762 10.1423L114.442 13.0223L115.098 13.7777L118.418 10.8977L117.762 10.1423ZM114.283 13.5138L115.283 17.7938L116.257 17.5662L115.257 13.2862L114.283 13.5138ZM116.029 17.2522L112.259 14.9722L111.741 15.8278L115.511 18.1078L116.029 17.2522Z" fill="black"/>
<path d="M114.81 8.62L114.35 8.81536L114.467 9.0923L114.767 9.11815L114.81 8.62ZM112 2L112.46 1.80464L112 0.71952L111.54 1.80489L112 2ZM109.19 8.63L109.232 9.12821L109.533 9.10272L109.65 8.82511L109.19 8.63ZM102 9.24L101.958 8.74179L100.777 8.84197L101.673 9.61791L102 9.24ZM107.46 13.97L107.947 14.0836L108.015 13.7897L107.787 13.5921L107.46 13.97ZM105.82 21L105.333 20.8864L105.064 22.0404L106.078 21.4281L105.82 21ZM112 17.27L112.258 16.8419L112 16.686L111.742 16.8419L112 17.27ZM118.18 21L117.922 21.4281L118.934 22.0392L118.667 20.8871L118.18 21ZM116.55 13.97L116.222 13.5924L115.995 13.7897L116.063 14.0829L116.55 13.97ZM108.24 17.67L107.753 17.5562L107.483 18.7109L108.498 18.098L108.24 17.67ZM109.24 13.39L109.727 13.5038L109.796 13.21L109.568 13.0123L109.24 13.39ZM105.92 10.51L105.877 10.0119L104.7 10.1139L105.592 10.8877L105.92 10.51ZM110.3 10.13L110.343 10.6281L110.644 10.6021L110.761 10.3243L110.3 10.13ZM112 6.1L112.46 5.90511L111.999 4.81541L111.539 5.90566L112 6.1ZM113.71 10.14L113.25 10.3349L113.367 10.6121L113.667 10.6381L113.71 10.14ZM118.09 10.52L118.418 10.8977L119.31 10.1239L118.133 10.0219L118.09 10.52ZM114.77 13.4L114.442 13.0223L114.214 13.22L114.283 13.5138L114.77 13.4ZM115.77 17.68L115.511 18.1078L116.527 18.7221L116.257 17.5662L115.77 17.68ZM122.043 8.74185L114.853 8.12185L114.767 9.11815L121.957 9.73815L122.043 8.74185ZM115.27 8.42464L112.46 1.80464L111.54 2.19536L114.35 8.81536L115.27 8.42464ZM111.54 1.80489L108.73 8.43489L109.65 8.82511L112.46 2.19511L111.54 1.80489ZM109.148 8.13179L101.958 8.74179L102.042 9.73821L109.232 9.12821L109.148 8.13179ZM101.673 9.61791L107.133 14.3479L107.787 13.5921L102.327 8.86209L101.673 9.61791ZM106.973 13.8564L105.333 20.8864L106.307 21.1136L107.947 14.0836L106.973 13.8564ZM106.078 21.4281L112.258 17.6981L111.742 16.8419L105.562 20.5719L106.078 21.4281ZM111.742 17.6981L117.922 21.4281L118.438 20.5719L112.258 16.8419L111.742 17.6981ZM118.667 20.8871L117.037 13.8571L116.063 14.0829L117.693 21.1129L118.667 20.8871ZM116.878 14.3476L122.328 9.61762L121.672 8.86238L116.222 13.5924L116.878 14.3476ZM111.742 14.972L107.982 17.242L108.498 18.098L112.258 15.828L111.742 14.972ZM108.727 17.7838L109.727 13.5038L108.753 13.2762L107.753 17.5562L108.727 17.7838ZM109.568 13.0123L106.248 10.1323L105.592 10.8877L108.912 13.7677L109.568 13.0123ZM105.963 11.0081L110.343 10.6281L110.257 9.63187L105.877 10.0119L105.963 11.0081ZM110.761 10.3243L112.461 6.29433L111.539 5.90566L109.839 9.93567L110.761 10.3243ZM111.54 6.29489L113.25 10.3349L114.17 9.94511L112.46 5.90511L111.54 6.29489ZM113.667 10.6381L118.047 11.0181L118.133 10.0219L113.753 9.64187L113.667 10.6381ZM117.762 10.1423L114.442 13.0223L115.098 13.7777L118.418 10.8977L117.762 10.1423ZM114.283 13.5138L115.283 17.7938L116.257 17.5662L115.257 13.2862L114.283 13.5138ZM116.029 17.2522L112.259 14.9722L111.741 15.8278L115.511 18.1078L116.029 17.2522Z" fill="black" fill-opacity="0.2"/>
<mask id="mask4" style="mask-type:alpha" maskUnits="userSpaceOnUse" x="100" y="0" width="23" height="23">
<path fill-rule="evenodd" clip-rule="evenodd" d="M122 9.24L114.81 8.62L112 2L109.19 8.63L102 9.24L107.46 13.97L105.82 21L112 17.27L118.18 21L116.55 13.97L122 9.24V9.24ZM112 15.4L108.24 17.67L109.24 13.39L105.92 10.51L110.3 10.13L112 6.1L113.71 10.14L118.09 10.52L114.77 13.4L115.77 17.68L112 15.4V15.4Z" fill="white"/>
<path d="M114.81 8.62L114.35 8.81536L114.467 9.0923L114.767 9.11815L114.81 8.62ZM112 2L112.46 1.80464L112 0.71952L111.54 1.80489L112 2ZM109.19 8.63L109.232 9.12821L109.533 9.10272L109.65 8.82511L109.19 8.63ZM102 9.24L101.958 8.74179L100.777 8.84197L101.673 9.61791L102 9.24ZM107.46 13.97L107.947 14.0836L108.015 13.7897L107.787 13.5921L107.46 13.97ZM105.82 21L105.333 20.8864L105.064 22.0404L106.078 21.4281L105.82 21ZM112 17.27L112.258 16.8419L112 16.686L111.742 16.8419L112 17.27ZM118.18 21L117.922 21.4281L118.934 22.0392L118.667 20.8871L118.18 21ZM116.55 13.97L116.222 13.5924L115.995 13.7897L116.063 14.0829L116.55 13.97ZM108.24 17.67L107.753 17.5562L107.483 18.7109L108.498 18.098L108.24 17.67ZM109.24 13.39L109.727 13.5038L109.796 13.21L109.568 13.0123L109.24 13.39ZM105.92 10.51L105.877 10.0119L104.7 10.1139L105.592 10.8877L105.92 10.51ZM110.3 10.13L110.343 10.6281L110.644 10.6021L110.761 10.3243L110.3 10.13ZM112 6.1L112.46 5.90511L111.999 4.81541L111.539 5.90566L112 6.1ZM113.71 10.14L113.25 10.3349L113.367 10.6121L113.667 10.6381L113.71 10.14ZM118.09 10.52L118.418 10.8977L119.31 10.1239L118.133 10.0219L118.09 10.52ZM114.77 13.4L114.442 13.0223L114.214 13.22L114.283 13.5138L114.77 13.4ZM115.77 17.68L115.511 18.1078L116.527 18.7221L116.257 17.5662L115.77 17.68ZM122.043 8.74185L114.853 8.12185L114.767 9.11815L121.957 9.73815L122.043 8.74185ZM115.27 8.42464L112.46 1.80464L111.54 2.19536L114.35 8.81536L115.27 8.42464ZM111.54 1.80489L108.73 8.43489L109.65 8.82511L112.46 2.19511L111.54 1.80489ZM109.148 8.13179L101.958 8.74179L102.042 9.73821L109.232 9.12821L109.148 8.13179ZM101.673 9.61791L107.133 14.3479L107.787 13.5921L102.327 8.86209L101.673 9.61791ZM106.973 13.8564L105.333 20.8864L106.307 21.1136L107.947 14.0836L106.973 13.8564ZM106.078 21.4281L112.258 17.6981L111.742 16.8419L105.562 20.5719L106.078 21.4281ZM111.742 17.6981L117.922 21.4281L118.438 20.5719L112.258 16.8419L111.742 17.6981ZM118.667 20.8871L117.037 13.8571L116.063 14.0829L117.693 21.1129L118.667 20.8871ZM116.878 14.3476L122.328 9.61762L121.672 8.86238L116.222 13.5924L116.878 14.3476ZM111.742 14.972L107.982 17.242L108.498 18.098L112.258 15.828L111.742 14.972ZM108.727 17.7838L109.727 13.5038L108.753 13.2762L107.753 17.5562L108.727 17.7838ZM109.568 13.0123L106.248 10.1323L105.592 10.8877L108.912 13.7677L109.568 13.0123ZM105.963 11.0081L110.343 10.6281L110.257 9.63187L105.877 10.0119L105.963 11.0081ZM110.761 10.3243L112.461 6.29433L111.539 5.90566L109.839 9.93567L110.761 10.3243ZM111.54 6.29489L113.25 10.3349L114.17 9.94511L112.46 5.90511L111.54 6.29489ZM113.667 10.6381L118.047 11.0181L118.133 10.0219L113.753 9.64187L113.667 10.6381ZM117.762 10.1423L114.442 13.0223L115.098 13.7777L118.418 10.8977L117.762 10.1423ZM114.283 13.5138L115.283 17.7938L116.257 17.5662L115.257 13.2862L114.283 13.5138ZM116.029 17.2522L112.259 14.9722L111.741 15.8278L115.511 18.1078L116.029 17.2522Z" fill="white"/>
</mask>
<g mask="url(#mask4)">
<rect x="99" y="-1" width="26" height="26" fill="#4D4D4D"/>
<rect x="99" y="-1" width="26" height="26" stroke="black"/>
<rect x="99" y="-1" width="26" height="26" stroke="black" stroke-opacity="0.2"/>
</g>
</svg>
